# xmcd
# 
# Track frame offsets:
#     150
#     18203
#     34790
#     53342
#     67590
#     87440
#     102599
#     116341
#     129999
#     145696
#     166483
#     176953
#     194360
#     215117
# 
# Disc length: 3131
# 
# Revision: 2
# Processed by: cddbd v1.5.2PL0 Copyright (c) Steve Scherf et al.
# Submitted via: fre:ac v1.0.31
# 
DISCID=bc0c390e
DTITLE=Dwight Yoakam - Live From Austin TX
DYEAR=2005
DGENRE=Country
TTITLE0=Guitars, Cadillacs
TTITLE1=Smoke Along The Track
TTITLE2=What I Don't Know
TTITLE3=Home of The Blues
TTITLE4=1,000 Miles
TTITLE5=Please, Please Baby
TTITLE6=Little Ways
TTITLE7=Honky Tonk Man
TTITLE8=Streets of Bakersfield
TTITLE9=Buenos Noches from a Lonely Room (She Wore Red Dresses)
TTITLE10=Always Late With Your Kisses
TTITLE11=Little Sister
TTITLE12=I Sang Dixie
TTITLE13=This Drinkin' Will Kill Me
EXTD=
EXTT0=
EXTT1=
EXTT2=
EXTT3=
EXTT4=
EXTT5=
EXTT6=
EXTT7=
EXTT8=
EXTT9=
EXTT10=
EXTT11=
EXTT12=
EXTT13=
PLAYORDER=
